<?xml version="1.0" standalone="no"?>
<!DOCTYPE svg PUBLIC "-//W3C//DTD SVG 20010904//EN"
 "http://www.w3.org/TR/2001/REC-SVG-20010904/DTD/svg10.dtd">
<svg version="1.0" xmlns="http://www.w3.org/2000/svg"
 width="268.000000pt" height="247.000000pt" viewBox="0 0 268.000000 247.000000"
 preserveAspectRatio="xMidYMid meet">

<g transform="translate(0.000000,247.000000) scale(0.100000,-0.100000)"
fill="#000000" stroke="none">
<path d="M805 2169 c-364 -53 -649 -333 -711 -699 -35 -202 27 -451 154 -622
89 -120 234 -230 377 -284 394 -149 845 28 1035 406 163 324 91 730 -174 978
-138 129 -279 195 -469 221 -89 12 -126 12 -212 0z m0 -428 c193 -183 454
-260 721 -215 31 6 32 5 43 -46 17 -81 14 -217 -9 -304 -46 -179 -176 -342
-340 -424 -423 -212 -924 65 -966 534 l-6 69 96 48 c71 36 117 68 176 124 75
71 179 210 195 261 3 12 9 22 12 22 3 0 38 -31 78 -69z"/>
<path d="M602 1335 c-38 -32 -46 -65 -28 -109 20 -49 56 -70 109 -63 86 12
116 109 52 173 -33 33 -93 33 -133 -1z"/>
<path d="M1098 1333 c-35 -38 -41 -65 -24 -106 39 -93 168 -87 192 9 25 97
-101 169 -168 97z"/>
<path d="M2354 977 c-9 -19 -28 -38 -45 -44 -37 -14 -37 -37 0 -53 16 -6 35
-25 41 -41 16 -38 45 -38 58 -1 6 18 22 34 41 42 39 16 40 38 1 52 -20 7 -35
22 -45 44 -18 43 -31 43 -51 1z"/>
<path d="M1982 878 c-7 -7 -12 -23 -12 -37 0 -46 -14 -57 -53 -43 -18 7 -41
12 -49 12 -17 0 -88 -116 -88 -144 0 -8 14 -25 30 -38 17 -12 30 -27 30 -34 0
-7 -13 -22 -30 -34 -16 -12 -30 -29 -30 -39 0 -25 59 -131 77 -138 8 -3 31 -1
51 5 43 14 62 2 62 -37 0 -42 17 -51 96 -51 78 0 82 2 100 60 8 29 14 34 35
32 80 -10 81 -10 116 48 39 66 41 92 8 118 -14 11 -25 26 -25 34 0 8 11 25 25
38 33 31 32 48 -11 120 -33 57 -38 61 -63 55 -62 -16 -74 -12 -86 25 -5 19
-14 41 -18 48 -11 16 -149 16 -165 0z m147 -194 c13 -9 29 -31 37 -50 37 -88
-53 -176 -142 -139 -43 18 -64 51 -64 103 0 36 5 49 31 73 36 34 99 40 138 13z"/>
<path d="M2421 644 l-33 -33 30 -31 c17 -16 33 -30 35 -30 3 0 19 14 37 30
l33 30 -35 34 -35 34 -32 -34z"/>
</g>
</svg>
